<svg width="20" height="20" viewBox="0 0 20 20" fill="none" xmlns="http://www.w3.org/2000/svg">
<mask id="mask0_1_621" style="mask-type:alpha" maskUnits="userSpaceOnUse" x="0" y="0" width="20" height="20">
<rect width="20" height="20" fill="#D9D9D9"/>
</mask>
<g mask="url(#mask0_1_621)">
<path d="M10.0014 17.9167C8.90644 17.9167 7.8772 17.7089 6.91373 17.2934C5.95026 16.8778 5.1122 16.3139 4.39956 15.6015C3.68692 14.8891 3.12269 14.0514 2.70685 13.0884C2.29116 12.1253 2.08331 11.0964 2.08331 10.0015C2.08331 8.9065 2.29109 7.87726 2.70665 6.91379C3.1222 5.95032 3.68616 5.11226 4.39852 4.39962C5.11088 3.68698 5.94859 3.12275 6.91165 2.70692C7.8747 2.29122 8.90366 2.08337 9.99852 2.08337C11.0935 2.08337 12.1228 2.29115 13.0862 2.70671C14.0497 3.12226 14.8878 3.68622 15.6004 4.39858C16.313 5.11094 16.8773 5.94865 17.2931 6.91171C17.7088 7.87476 17.9166 8.90372 17.9166 9.99858C17.9166 11.0936 17.7089 12.1228 17.2933 13.0863C16.8778 14.0498 16.3138 14.8878 15.6014 15.6005C14.8891 16.3131 14.0514 16.8773 13.0883 17.2932C12.1253 17.7089 11.0963 17.9167 10.0014 17.9167ZM9.99998 16.6667C11.8611 16.6667 13.4375 16.0209 14.7291 14.7292C16.0208 13.4375 16.6666 11.8612 16.6666 10C16.6666 9.90282 16.6645 9.80344 16.6602 9.70192C16.6559 9.60039 16.6511 9.50962 16.6458 9.42962C16.5923 9.81629 16.4248 10.1362 16.1433 10.3894C15.8619 10.6426 15.5235 10.7692 15.1281 10.7692H13.2371C12.814 10.7692 12.4519 10.6187 12.1506 10.3177C11.8494 10.0166 11.6987 9.65469 11.6987 9.23192V8.46317H8.62185V6.92587C8.62185 6.5031 8.77248 6.14053 9.07373 5.83817C9.37498 5.5358 9.73713 5.38462 10.1602 5.38462H10.9296V5.06421C10.9296 4.70199 11.0391 4.40199 11.2581 4.16421C11.477 3.92657 11.7409 3.76074 12.0498 3.66671C11.7238 3.5599 11.3915 3.47761 11.0529 3.41983C10.7143 3.36219 10.3633 3.33337 9.99998 3.33337C8.13887 3.33337 6.56248 3.97921 5.27081 5.27087C3.97915 6.56254 3.33331 8.13893 3.33331 10V10.1202C3.33331 10.1576 3.33595 10.1977 3.34123 10.2405H7.29165C8.14415 10.2405 8.87012 10.5401 9.46956 11.1394C10.0689 11.7389 10.3685 12.4637 10.3685 13.3138V14.0865H8.06081V16.3702C8.37067 16.4664 8.68637 16.5398 9.0079 16.5907C9.32956 16.6414 9.66026 16.6667 9.99998 16.6667Z" fill="#303030"/>
</g>
</svg>
